<?xml version="1.0" standalone="no"?>
<!DOCTYPE svg PUBLIC "-//W3C//DTD SVG 20010904//EN"
 "http://www.w3.org/TR/2001/REC-SVG-20010904/DTD/svg10.dtd">
<svg version="1.0" xmlns="http://www.w3.org/2000/svg"
 width="585.000000pt" height="235.000000pt" viewBox="0 0 585.000000 235.000000"
 preserveAspectRatio="xMidYMid meet">
<metadata>
Created by potrace 1.15, written by Peter Selinger 2001-2017
</metadata>
<g transform="translate(0.000000,235.000000) scale(0.100000,-0.100000)"
fill="#000000" stroke="none">
<path d="M4462 1738 c-9 -9 -12 -112 -12 -439 0 -473 -3 -453 67 -447 l38 3 0
445 0 445 -40 3 c-23 2 -46 -3 -53 -10z"/>
<path d="M632 1682 c-9 -6 -12 -97 -10 -418 l3 -409 45 0 45 0 3 158 3 157 74
0 c101 0 166 16 223 53 121 82 147 271 51 380 -59 68 -98 80 -274 84 -82 2
-156 0 -163 -5z m315 -108 c85 -63 90 -198 11 -272 -33 -30 -79 -42 -165 -42
l-73 0 0 171 0 171 100 -4 c81 -3 105 -8 127 -24z"/>
<path d="M1927 1624 c-4 -4 -7 -40 -7 -80 l0 -73 -47 -3 -48 -3 0 -40 0 -40
47 -3 47 -3 3 -217 c2 -181 6 -222 20 -248 28 -52 64 -69 144 -69 86 0 104 12
104 67 0 34 -3 39 -17 33 -35 -14 -91 -17 -111 -6 -33 18 -42 73 -42 263 l0
177 83 3 82 3 0 40 0 40 -82 3 -82 3 -3 77 -3 77 -40 3 c-23 2 -44 0 -48 -4z"/>
<path d="M2510 1471 c-92 -28 -157 -90 -187 -176 -21 -60 -24 -208 -5 -272 18
-61 70 -123 127 -152 42 -22 62 -26 140 -26 81 0 95 3 144 30 59 33 89 67 123
141 19 41 23 66 23 154 0 95 -3 111 -28 162 -34 69 -84 113 -151 133 -52 16
-144 18 -186 6z m165 -101 c61 -29 88 -83 93 -186 9 -163 -55 -254 -179 -254
-53 0 -99 21 -132 59 -33 40 -47 89 -47 167 0 113 40 195 110 223 42 16 111
12 155 -9z"/>
<path d="M3243 1470 c-12 -5 -41 -30 -65 -55 l-43 -46 -5 48 -5 48 -40 0 -40
0 0 -305 0 -305 45 0 45 0 5 201 5 201 30 43 c49 71 106 94 168 71 20 -8 27
-6 31 5 9 23 7 67 -3 83 -11 17 -97 25 -128 11z"/>
<path d="M3929 1467 c-53 -15 -108 -45 -122 -68 -13 -21 0 -73 16 -66 138 61
195 70 263 42 40 -17 64 -62 64 -123 l0 -39 -102 -6 c-57 -3 -120 -11 -141
-18 -59 -20 -115 -76 -128 -129 -39 -156 128 -271 286 -196 28 13 59 33 70 46
l20 22 5 -38 c5 -38 6 -39 45 -39 l40 0 0 245 c0 229 -1 248 -21 285 -30 57
-88 87 -178 92 -39 1 -92 -3 -117 -10z m221 -401 c0 -60 -2 -66 -32 -92 -105
-88 -238 -62 -238 45 0 75 61 110 193 111 l77 0 0 -64z"/>
<path d="M1217 1458 c-2 -7 47 -150 110 -317 l114 -303 -40 -100 c-22 -56 -38
-105 -35 -109 8 -13 78 -11 96 4 23 17 312 817 300 829 -5 5 -28 8 -52 6 l-42
-3 -79 -230 c-44 -126 -82 -237 -85 -245 -5 -13 -6 -13 -13 0 -5 8 -43 114
-86 235 -43 121 -83 226 -88 233 -5 6 -29 12 -52 12 -25 0 -45 -5 -48 -12z"/>
<path d="M3512 1458 c-9 -9 -12 -83 -12 -299 0 -319 -1 -313 67 -307 l38 3 0
305 0 305 -40 3 c-23 2 -46 -3 -53 -10z"/>
</g>
</svg>
