<?xml version="1.0" standalone="no"?>
<!DOCTYPE svg PUBLIC "-//W3C//DTD SVG 20010904//EN"
 "http://www.w3.org/TR/2001/REC-SVG-20010904/DTD/svg10.dtd">
<svg version="1.0" xmlns="http://www.w3.org/2000/svg"
 width="784.000000pt" height="351.000000pt" viewBox="0 0 784.000000 351.000000"
 preserveAspectRatio="xMidYMid meet">
<metadata>
Created by potrace 1.15, written by Peter Selinger 2001-2017
</metadata>
<g transform="translate(0.000000,351.000000) scale(0.100000,-0.100000)"
fill="#000000" stroke="none">
<path d="M3915 2785 c-5 -2 -32 -6 -60 -10 l-50 -7 31 -13 c18 -7 34 -23 37
-36 12 -44 8 -516 -4 -543 -7 -14 -24 -30 -38 -35 -20 -7 0 -10 79 -10 l105
-1 -32 20 -33 20 0 310 c0 315 0 317 -35 305z"/>
<path d="M1178 2758 c64 -22 67 -34 67 -308 0 -274 -3 -287 -67 -307 -26 -9
-2 -11 122 -11 111 0 146 2 123 9 -62 18 -73 46 -73 184 l0 123 108 4 c76 3
116 9 140 21 98 53 95 198 -5 267 -36 24 -41 25 -242 27 -162 1 -199 -1 -173
-9z m328 -28 c55 -51 69 -132 34 -199 -24 -47 -70 -71 -139 -71 l-51 0 0 151
0 151 65 -4 c51 -3 70 -9 91 -28z"/>
<path d="M2182 2616 c-7 -19 -24 -46 -39 -60 -23 -24 -33 -26 -106 -26 l-80 0
27 -21 c33 -26 32 -31 -26 -182 -23 -59 -45 -104 -49 -100 -7 8 -81 197 -93
238 -6 23 1 37 29 53 16 9 1 11 -75 11 -69 0 -90 -2 -77 -10 22 -13 37 -43
114 -229 69 -167 71 -185 33 -248 -20 -33 -22 -34 -70 -27 -41 6 -51 4 -56 -9
-9 -23 14 -46 47 -46 53 0 75 34 172 270 52 124 99 235 105 247 15 27 42 43
76 43 l25 0 3 -180 c4 -208 5 -211 90 -217 41 -3 60 1 86 16 17 12 32 26 32
33 0 6 -10 2 -23 -10 -29 -27 -57 -28 -88 -3 -23 19 -24 24 -27 190 l-3 170
63 4 63 3 -62 2 -63 2 0 60 c0 67 -10 77 -28 26z"/>
<path d="M4644 2398 c-74 -195 -95 -235 -134 -255 -22 -11 -15 -13 55 -12 77
0 79 0 53 15 -33 18 -36 47 -11 117 l17 47 73 0 73 0 16 -37 c9 -21 18 -55 21
-75 5 -35 3 -39 -28 -53 -32 -14 -29 -14 81 -14 106 0 113 1 83 14 -39 17 -40
18 -133 244 -42 102 -81 186 -86 188 -6 2 -42 -79 -80 -179z"/>
<path d="M5170 2567 c42 -21 50 -51 50 -202 0 -166 -9 -209 -48 -223 -21 -8
-4 -11 78 -11 l105 -1 -32 20 -33 20 0 95 c0 87 2 95 19 95 39 0 72 -20 86
-52 l14 -33 1 31 c0 17 2 60 6 95 5 62 5 63 -9 33 -19 -39 -53 -64 -89 -64
l-28 0 0 100 0 100 49 0 c72 0 107 -16 137 -63 14 -23 23 -34 20 -24 -3 10 -6
36 -6 58 l0 39 -172 0 c-145 0 -169 -2 -148 -13z"/>
<path d="M2502 2517 c-116 -43 -175 -174 -123 -276 57 -110 186 -151 299 -95
128 64 157 203 64 306 -64 71 -155 95 -240 65z m142 -27 c48 -43 69 -103 64
-182 -7 -106 -59 -178 -128 -178 -66 0 -127 77 -137 174 -7 73 12 133 57 178
49 50 94 52 144 8z"/>
<path d="M2930 2524 c-8 -1 -33 -6 -55 -9 l-40 -7 31 -13 c39 -16 44 -34 44
-175 0 -141 -5 -159 -44 -176 -29 -12 -23 -13 74 -14 l105 0 -32 20 -33 20 0
127 c0 102 4 135 18 163 22 45 52 50 93 16 17 -14 34 -26 39 -26 16 0 31 30
25 49 -14 44 -106 38 -154 -10 l-30 -29 -3 32 c-3 32 -11 38 -38 32z"/>
<path d="M3270 2525 c-8 -2 -33 -7 -55 -10 -39 -7 -39 -7 -15 -20 34 -18 39
-36 39 -170 1 -146 -3 -163 -43 -181 -29 -12 -23 -13 74 -14 l105 0 -32 20
-33 20 0 180 c0 186 1 183 -40 175z"/>
<path d="M3478 2514 c-41 -17 -56 -47 -38 -69 20 -24 49 -18 62 13 26 59 62
77 108 52 24 -13 43 -82 35 -121 -8 -33 -32 -48 -119 -73 -75 -22 -106 -52
-106 -104 0 -55 34 -84 102 -89 45 -4 58 -1 87 21 l34 25 29 -24 c42 -36 108
-33 128 5 9 17 7 17 -19 7 -54 -20 -61 -3 -62 147 -1 72 -4 142 -8 156 -16 56
-154 88 -233 54z m172 -216 c0 -101 -38 -168 -93 -168 -60 0 -80 95 -29 142
29 27 102 76 115 77 4 1 7 -23 7 -51z"/>
<path d="M5521 2403 l-23 -5 21 -14 c19 -14 21 -25 21 -119 0 -96 -2 -105 -22
-119 -21 -15 -18 -16 52 -16 61 1 71 3 55 12 -11 6 -23 16 -27 22 -13 19 -9
155 6 191 16 38 44 46 66 20 14 -17 36 -20 45 -5 11 17 -15 40 -45 40 -15 0
-39 -9 -53 -20 l-26 -20 -6 20 c-6 20 -17 22 -64 13z"/>
<path d="M5811 2392 c-97 -53 -93 -207 6 -249 50 -20 118 -12 147 17 l21 23
-25 -17 c-58 -38 -139 -2 -160 72 -20 73 -21 72 89 72 l98 0 -4 24 c-12 63
-106 95 -172 58z"/>
<path d="M6111 2392 c-97 -53 -93 -207 6 -249 50 -20 118 -12 147 17 l21 23
-25 -17 c-58 -38 -139 -2 -160 72 -20 73 -21 72 89 72 l98 0 -4 24 c-12 63
-106 95 -172 58z"/>
<path d="M1996 1743 c-28 -4 -28 -5 -7 -19 20 -15 21 -23 21 -209 0 -189 -1
-194 -22 -209 -21 -15 -18 -16 52 -15 62 0 71 2 52 11 -29 15 -36 43 -30 136
5 67 8 78 32 99 15 13 38 23 51 23 51 0 70 -52 63 -167 -3 -54 -8 -69 -27 -84
-23 -19 -23 -19 50 -19 60 1 70 3 54 12 -32 18 -35 28 -35 130 0 92 -1 97 -26
117 -34 27 -89 27 -131 1 l-33 -20 0 110 c0 120 5 113 -64 103z"/>
<path d="M5216 1743 c-28 -4 -28 -5 -7 -19 20 -15 21 -23 21 -209 0 -189 -1
-194 -22 -209 -21 -15 -18 -16 52 -16 61 1 71 3 55 12 -11 6 -23 16 -27 22 -4
6 -8 104 -8 219 0 229 6 210 -64 200z"/>
<path d="M1166 1726 c18 -8 34 -24 37 -37 9 -31 9 -317 0 -348 -3 -13 -19 -29
-37 -37 -28 -12 -22 -13 79 -13 101 0 107 1 79 13 -40 17 -44 30 -44 127 l0
79 65 0 c74 0 128 18 144 48 16 31 13 99 -6 129 -28 43 -69 53 -215 53 -121
-1 -130 -2 -102 -14z m208 -7 c34 -16 60 -72 52 -114 -11 -55 -35 -77 -94 -83
l-52 -5 0 107 0 106 35 0 c19 0 45 -5 59 -11z"/>
<path d="M3190 1726 c0 -7 -3 -35 -6 -62 l-6 -49 23 45 c27 50 63 68 137 69
l44 1 -4 -193 c-3 -204 -6 -219 -53 -237 -12 -6 20 -9 85 -9 58 1 98 3 90 6
-49 18 -50 24 -50 236 l0 200 54 -6 c67 -7 91 -21 117 -72 11 -22 18 -32 15
-22 -4 10 -6 39 -6 63 l0 44 -220 0 c-179 0 -220 -3 -220 -14z"/>
<path d="M1862 1635 c-24 -54 -40 -65 -100 -65 -53 0 -54 -1 -39 -18 10 -10
17 -22 17 -26 0 -21 -64 -166 -71 -159 -4 4 -22 43 -39 87 -29 74 -30 80 -14
97 17 18 15 19 -46 19 -53 0 -61 -2 -47 -12 9 -7 39 -67 67 -133 42 -96 51
-128 47 -158 -3 -21 -4 -37 -2 -35 2 2 31 70 64 152 34 82 66 155 72 163 6 7
22 13 35 13 24 0 24 0 24 -118 0 -103 3 -121 18 -135 28 -26 94 -22 118 6 19
22 19 22 -2 5 -26 -22 -48 -23 -68 -2 -13 12 -16 39 -16 129 l0 114 43 4 42 4
-42 1 -42 2 -3 48 -3 47 -13 -30z"/>
<path d="M4049 1629 c-9 -20 -27 -44 -40 -53 -19 -13 -20 -16 -6 -16 15 0 17
-13 17 -118 0 -103 3 -121 18 -135 28 -26 94 -22 118 6 19 22 19 22 -2 5 -26
-22 -48 -23 -68 -2 -13 12 -16 39 -16 129 l0 114 43 4 42 4 -42 1 -42 2 -3 48
-3 47 -16 -36z"/>
<path d="M2415 1550 c-106 -54 -111 -179 -9 -237 97 -56 218 0 231 105 6 51
-23 101 -77 129 -53 28 -93 29 -145 3z m125 -18 c32 -33 45 -85 35 -139 -8
-43 -54 -93 -87 -93 -100 0 -134 182 -46 244 33 24 66 19 98 -12z"/>
<path d="M2697 1563 l-28 -4 23 -19 c21 -17 23 -26 23 -115 0 -90 -2 -98 -24
-116 l-23 -19 73 0 c60 1 70 3 54 12 -11 6 -23 16 -27 22 -11 16 -10 160 1
189 11 29 61 52 95 43 34 -8 50 -69 43 -160 -4 -57 -9 -73 -27 -88 -22 -18
-21 -18 51 -18 60 1 70 3 54 12 -32 18 -35 28 -35 130 0 92 -1 97 -26 117 -34
27 -89 27 -131 1 -33 -20 -33 -20 -33 0 0 20 -6 21 -63 13z"/>
<path d="M3663 1554 c27 -14 27 -16 27 -115 0 -93 2 -102 25 -124 28 -29 99
-34 131 -10 25 19 34 19 34 0 0 -11 12 -15 48 -14 40 0 44 2 25 11 -29 14 -33
34 -33 161 l0 107 -47 -1 c-42 0 -45 -2 -26 -11 28 -14 37 -57 30 -151 -5 -79
-25 -107 -77 -107 -51 0 -60 24 -60 153 l0 117 -52 0 c-53 -1 -53 -1 -25 -16z"/>
<path d="M4255 1550 c-106 -54 -111 -179 -9 -237 97 -56 218 0 231 105 6 51
-23 101 -77 129 -53 28 -93 29 -145 3z m125 -18 c32 -33 45 -85 35 -139 -8
-43 -54 -93 -87 -93 -100 0 -134 182 -46 244 33 24 66 19 98 -12z"/>
<path d="M4531 1563 l-23 -5 21 -14 c19 -14 21 -25 21 -119 0 -96 -2 -105 -22
-119 -21 -15 -18 -16 52 -16 61 1 71 3 55 12 -11 6 -23 16 -27 22 -13 19 -9
155 6 191 16 38 44 46 66 20 14 -17 36 -20 45 -5 11 17 -15 40 -45 40 -15 0
-39 -9 -53 -20 l-26 -20 -6 20 c-6 20 -17 22 -64 13z"/>
<path d="M4766 1563 c-28 -4 -28 -5 -7 -19 19 -14 21 -25 21 -119 0 -96 -2
-105 -22 -119 -21 -15 -18 -16 52 -16 61 1 71 3 55 12 -33 18 -35 28 -35 151
0 128 5 120 -64 110z"/>
<path d="M4950 1557 c-30 -15 -38 -45 -14 -54 11 -4 22 1 30 13 25 36 35 44
54 44 28 0 50 -28 50 -64 0 -40 -12 -52 -75 -70 -82 -25 -109 -72 -65 -116 21
-21 94 -29 104 -11 3 4 -5 6 -18 4 -18 -4 -29 2 -40 20 -24 35 -7 69 48 100
l46 26 0 -44 c0 -24 -4 -55 -10 -69 -7 -19 -6 -24 4 -20 7 3 19 -2 26 -11 15
-18 63 -20 78 -2 8 10 5 13 -16 12 l-27 0 -5 110 -5 110 -35 17 c-41 21 -95
23 -130 5z"/>
</g>
</svg>
